<svg width="42" height="42" viewBox="0 0 42 42" fill="none" xmlns="http://www.w3.org/2000/svg">
<g clip-path="url(#clip0_15_21)">
<path d="M30.576 25.1684C30.0562 24.9077 27.4995 23.6512 27.0235 23.4762C26.5457 23.3029 26.1992 23.2172 25.851 23.7387C25.5062 24.2584 24.5087 25.4292 24.206 25.7757C23.9032 26.1239 23.5987 26.1659 23.079 25.9069C22.5592 25.6444 20.8827 25.0967 18.8965 23.3257C17.3512 21.9467 16.3065 20.2439 16.0037 19.7225C15.701 19.2027 15.9722 18.9209 16.2312 18.6619C16.4657 18.4292 16.7527 18.0547 17.0117 17.7519C17.2725 17.4475 17.3582 17.2304 17.5332 16.8822C17.7065 16.5357 17.6207 16.233 17.4895 15.9722C17.3582 15.7114 16.3187 13.1512 15.8865 12.11C15.463 11.0967 15.0342 11.2349 14.7157 11.2174C14.413 11.2034 14.0665 11.2 13.7182 11.2C13.3717 11.2 12.8082 11.3294 12.3322 11.8509C11.8562 12.3707 10.5122 13.629 10.5122 16.1892C10.5122 18.7477 12.376 21.2204 12.635 21.5687C12.8957 21.9152 16.303 27.1687 21.5197 29.4209C22.7605 29.9564 23.7282 30.2767 24.4842 30.5147C25.7302 30.9119 26.8642 30.8559 27.7585 30.7212C28.7577 30.5724 30.835 29.4629 31.269 28.2484C31.703 27.0339 31.703 25.9927 31.5717 25.7757C31.4422 25.5587 31.0975 25.4292 30.576 25.1684ZM21.0875 38.1237H21.0805C17.9826 38.124 14.9416 37.291 12.2762 35.7122L11.6445 35.3377L5.09773 37.0562L6.84423 30.6722L6.43298 30.0177C4.70125 27.2602 3.78513 24.0689 3.79048 20.8127C3.79223 11.2752 11.5535 3.5157 21.0945 3.5157C25.7145 3.5157 30.058 5.3182 33.3235 8.5872C34.9347 10.1913 36.2117 12.099 37.0807 14.1999C37.9498 16.3008 38.3935 18.5532 38.3862 20.8267C38.381 30.3642 30.6215 38.1237 21.0875 38.1237ZM35.8102 6.10395C33.8821 4.16307 31.5879 2.62414 29.0606 1.57635C26.5334 0.528561 23.8233 -0.0072555 21.0875 -5.03596e-05C9.61623 -5.03596e-05 0.279981 9.3362 0.274731 20.8109C0.274731 24.479 1.23198 28.0594 3.05373 31.2147L0.0997314 41.9999L11.1335 39.1054C14.1848 40.7678 17.604 41.639 21.0787 41.6395H21.0875C32.557 41.6395 41.895 32.3032 41.9002 20.8267C41.9087 18.0919 41.3748 15.3826 40.3295 12.8555C39.2841 10.3284 37.7481 8.03362 35.8102 6.10395Z" fill="black"/>
</g>
<defs>
<clipPath id="clip0_15_21">
<rect width="42" height="42" fill="white"/>
</clipPath>
</defs>
</svg>
